<?xml version="1.0" encoding="UTF-8"?>
<svg width="20px" height="20px" viewBox="0 0 20 20" version="1.1" xmlns="http://www.w3.org/2000/svg" xmlns:xlink="http://www.w3.org/1999/xlink">
    <!-- Generator: Sketch 52.5 (67469) - http://www.bohemiancoding.com/sketch -->
    <title>ic_accept</title>
    <desc>Created with Sketch.</desc>
    <g id="组件" stroke="none" stroke-width="1" fill="none" fill-rule="evenodd">
        <g id="ic_accept">
            <g>
                <rect id="矩形" fill="#000000" opacity="0" x="0" y="0" width="20" height="20"></rect>
                <g id="分组-9" transform="translate(1.000000, 1.000000)" fill="#2D8EF8">
                    <path d="M3.52539062,13.921875 C3.52539062,14.2675781 3.8046875,14.546875 4.15039062,14.546875 L13.8515625,14.546875 C14.1972656,14.546875 14.4765625,14.2675781 14.4765625,13.921875 C14.4765625,13.5761719 14.1972656,13.296875 13.8515625,13.296875 L4.15039062,13.296875 C3.8046875,13.296875 3.52539062,13.5761719 3.52539062,13.921875 Z M8.38085938,10.796875 L4.15039062,10.796875 C3.8046875,10.796875 3.52539062,11.0761719 3.52539062,11.421875 C3.52539062,11.7675781 3.8046875,12.046875 4.15039062,12.046875 L8.38085937,12.046875 C8.7265625,12.046875 9.00585937,11.7675781 9.00585937,11.421875 C9.00585937,11.0761719 8.7265625,10.796875 8.38085937,10.796875 Z" id="形状" fill-rule="nonzero"></path>
                    <path d="M15.875,16.4980469 L15.8730469,16.5 L2.16601562,16.5 L2.1640625,16.4980469 L2.1640625,1.50195312 L2.16601562,1.5 L12.0214844,1.5 L13.2714844,0.25 L2.1640625,0.25 C1.4765625,0.25 0.9140625,0.8125 0.9140625,1.5 L0.9140625,16.5 C0.9140625,17.1875 1.4765625,17.75 2.1640625,17.75 L15.875,17.75 C16.5625,17.75 17.125,17.1875 17.125,16.5 L17.125,5.37890625 L15.875,6.62890625 L15.875,16.4980469 Z" id="路径"></path>
                    <path d="M17.5664062,2.45117188 L15.5410156,0.427734375 C15.296875,0.18359375 14.9003906,0.18359375 14.65625,0.427734375 L11.59375,3.4921875 L10.7675781,2.66601562 C10.59375,2.4921875 10.3320312,2.43554688 10.1015625,2.52539063 C9.87109375,2.61328125 9.71484375,2.83007812 9.70117187,3.07617188 L9.47070312,7.62695313 C9.4609375,7.80273438 9.52734375,7.97460938 9.65234375,8.09960938 C9.76953125,8.21679688 9.9296875,8.28320312 10.09375,8.28320312 L10.125,8.28320312 L14.6757812,8.05273438 C14.921875,8.04101562 15.1386719,7.8828125 15.2265625,7.65234375 C15.3144531,7.421875 15.2597656,7.16015625 15.0859375,6.98632812 L14.5,6.40039062 L17.5664062,3.3359375 C17.6835937,3.21875 17.75,3.06054687 17.75,2.89453125 C17.75,2.72851562 17.6835937,2.56835937 17.5664062,2.45117188 Z M13.1757812,5.95898437 C13.0585937,6.07617187 12.9921875,6.234375 12.9921875,6.40039062 C12.9921875,6.56640625 13.0585937,6.72460938 13.1757812,6.84179688 L13.2089844,6.875 L10.7539062,7 L10.8789062,4.54492188 L11.1523437,4.81835937 C11.2695312,4.93554688 11.4277344,5.00195312 11.59375,5.00195312 C11.7597656,5.00195312 11.9179687,4.93554688 12.0351562,4.81835937 L15.0996094,1.75390625 L16.2402344,2.89453125 L13.1757812,5.95898437 Z" id="形状" fill-rule="nonzero"></path>
                </g>
            </g>
        </g>
    </g>
</svg>