<?xml version="1.0" encoding="UTF-8"?>
<svg width="20px" height="20px" viewBox="0 0 20 20" version="1.1" xmlns="http://www.w3.org/2000/svg" xmlns:xlink="http://www.w3.org/1999/xlink">
    <!-- Generator: Sketch 52.5 (67469) - http://www.bohemiancoding.com/sketch -->
    <title>ic_date</title>
    <desc>Created with Sketch.</desc>
    <g id="组件" stroke="none" stroke-width="1" fill="none" fill-rule="evenodd">
        <g id="ic_date">
            <g>
                <circle id="Oval-3" fill="#60C84C" cx="10" cy="10" r="10"></circle>
                <path d="M12.812411,10.5062809 C11.3953582,10.5062809 10.240251,11.5953027 10.240251,12.9454412 C10.240251,14.2891986 11.3886735,15.3846154 12.812411,15.3846154 C14.2295081,15.3846154 15.3846154,14.2955936 15.3846154,12.9454412 C15.3846154,11.5953027 14.2295081,10.5062809 12.812411,10.5062809 Z M14.061592,13.6650654 L12.3691799,13.6650654 L12.3691799,11.8182174 L12.9668838,11.8182174 L12.9668838,13.098277 L14.0682768,13.098277 L14.0682768,13.6650654 L14.061592,13.6650654 Z M9.783547,12.9391022 C9.783547,12.0347232 10.2335072,11.2132131 10.9386543,10.6909797 C10.8983686,10.7101087 10.8513834,10.7228427 10.8043391,10.7228427 L7.54716002,10.7228427 C7.38598775,10.7228427 7.25162834,10.5954328 7.25162834,10.442597 C7.25162834,10.2897612 7.38598775,10.1623933 7.54716002,10.1623933 L10.7976544,10.1623933 C10.9588266,10.1623933 11.0931418,10.2897612 11.0931418,10.442597 C11.0931418,10.5190149 11.0595851,10.5826988 11.0125556,10.6336348 C11.4826882,10.3024952 12.0602197,10.1114574 12.6848397,10.1114574 C13.4638882,10.1114574 14.2832224,10.3407111 14.8070396,10.8119946 L14.8070396,5.0612001 C14.8070396,4.81281739 14.5988821,4.61538462 14.3369514,4.61538462 L5.8547479,4.61538462 C5.59281714,4.61538462 5.38461538,4.81281739 5.38461538,5.0612001 L5.38461538,14.6649352 C5.38461538,14.9133179 5.59281714,15.1107647 5.8547479,15.1107647 L10.8513834,15.1107647 C10.1730934,14.6076463 9.783547,13.8242962 9.783547,12.9391022 Z M7.54716002,6.70427624 L12.6109383,6.70427624 C12.7721106,6.70427624 12.9064257,6.8316441 12.9064257,6.98447993 C12.9064257,7.13731576 12.7721106,7.2647256 12.6109383,7.2647256 L7.54716002,7.2647256 C7.38598775,7.2647256 7.25162834,7.13731576 7.25162834,6.98447993 C7.25162834,6.8316441 7.38598775,6.70427624 7.54716002,6.70427624 Z M7.54716002,8.43651828 L12.6109383,8.43651828 C12.7721106,8.43651828 12.9064257,8.56387214 12.9064257,8.71670797 C12.9064257,8.86959977 12.7721106,8.99695364 12.6109383,8.99695364 L7.54716002,8.99695364 C7.38598775,8.99695364 7.25162834,8.86959977 7.25162834,8.71670797 C7.25162834,8.56387214 7.38598775,8.43651828 7.54716002,8.43651828 Z M11.0319695,10.6336348 L10.9319695,10.7336348 C10.9736652,10.7114288 11.0070107,10.6781443 11.0319695,10.6336348 Z" id="ERP_待办当前状态" fill="#FFFFFF"></path>
            </g>
        </g>
    </g>
</svg>