<?xml version="1.0" encoding="UTF-8"?>
<svg width="20px" height="20px" viewBox="0 0 20 20" version="1.1" xmlns="http://www.w3.org/2000/svg" xmlns:xlink="http://www.w3.org/1999/xlink">
    <!-- Generator: Sketch 52.5 (67469) - http://www.bohemiancoding.com/sketch -->
    <title>ic_excute</title>
    <desc>Created with Sketch.</desc>
    <g id="组件" stroke="none" stroke-width="1" fill="none" fill-rule="evenodd">
        <g id="ic_excute">
            <g>
                <rect id="矩形" fill="#000000" opacity="0" x="0" y="0" width="20" height="20"></rect>
                <path d="M10.1156316,5.23291209 C10.053054,5.19697645 9.98468039,5.17986805 9.91710621,5.17986805 C9.77879998,5.17986805 9.64375154,5.25135957 9.56932201,5.37907299 L8.04781359,7.98984289 C7.99492945,8.08048145 7.98065912,8.18622975 8.00770078,8.28750107 C8.03516217,8.39039131 8.10155715,8.47649293 8.19473396,8.52995668 C8.38516484,8.63962232 8.63103814,8.57436656 8.74268246,8.38409557 L10.2636513,5.7732657 C10.371618,5.58501336 10.3053829,5.34233789 10.1156316,5.23291209 Z M7.75021535,9.2970366 L7.74951582,9.29625713 C7.68675838,9.2601616 7.61804496,9.24299324 7.55019096,9.24299324 C7.41172484,9.24299324 7.27665641,9.31434486 7.20218689,9.44189838 L7.03332139,9.73180182 C6.98043725,9.82238041 6.96618689,9.92792885 6.99314863,10.0290403 C7.02053006,10.1318106 7.08708494,10.2178723 7.18038168,10.2715159 C7.37111236,10.3810616 7.61654596,10.315686 7.72783051,10.1258546 L7.89647617,9.83595121 C7.94966012,9.74353387 7.96367061,9.63634654 7.93582949,9.53435568 C7.90818824,9.4333442 7.84227293,9.34904135 7.75021535,9.2970366 Z M9.66285857,18.0363314 L0.874017422,18.0363314 C0.560410039,18.0363314 0.305263047,18.3286732 0.305263047,18.6389028 C0.305263047,18.9491125 0.560410059,19.2413744 0.874017422,19.2413744 L9.66285859,19.2413744 C9.97594633,19.2413744 10.2307136,18.9491125 10.2307136,18.6389028 C10.2307136,18.3286732 9.97594631,18.0363314 9.66285857,18.0363314 Z M19.933655,13.2355263 C19.9000778,13.1080527 19.8181333,13.0012452 19.7028115,12.9347902 L11.3378429,8.57290758 L13.2653761,5.26473053 C13.4210905,4.9976716 13.4627223,4.68624273 13.3827165,4.38756525 C13.3021312,4.08682916 13.1083226,3.83573939 12.8369665,3.68054461 L7.56761916,0.665049102 C7.3895199,0.563437988 7.18705719,0.509714414 6.98219607,0.509714414 C6.56278043,0.509714414 6.17278486,0.73190377 5.96450607,1.08952131 L0.216083496,10.9530938 C0.0605089844,11.2204326 0.018917168,11.5321812 0.0989429102,11.8308187 C0.179388359,12.1311751 0.37303707,12.3822448 0.644293164,12.5376795 L5.91400031,15.5522756 C6.09229943,15.6542864 6.29482211,15.7082098 6.49974318,15.7082098 C6.91883904,15.7082098 7.30837492,15.4858206 7.51645385,15.1278233 L9.45004287,11.8075145 L17.514815,16.6861868 C17.5877455,16.7279385 17.6726679,16.7505032 17.7588895,16.7505032 C17.9366889,16.7505032 18.1022167,16.6562071 18.1906767,16.50437 L19.8811306,13.6034169 C19.9479853,13.4910531 19.9664528,13.3606215 19.933655,13.2355263 Z M6.82564221,14.3533085 C6.7184149,14.5036265 6.52880346,14.5571503 6.38699961,14.5571503 C6.36205652,14.5571503 6.33829264,14.5554914 6.31640748,14.5522736 C6.12177943,14.5234131 5.92759109,14.4243203 5.82911787,14.3677587 L1.72955736,12.0227686 C1.53175148,11.9097652 1.39030738,11.7265694 1.33138732,11.5069583 C1.27260717,11.2879468 1.30314646,11.0592019 1.41734904,10.862895 L6.48737156,2.15921605 C6.63974824,1.89803314 6.92397555,1.73586309 7.22908867,1.73586309 C7.37788779,1.73586309 7.52488813,1.77487664 7.65424041,1.84874654 L11.7515225,4.19399646 C11.949808,4.30757945 12.091392,4.49117498 12.1502521,4.710906 C12.2088324,4.92971764 12.1782531,5.15806283 12.0641705,5.3538301 C11.5343297,6.26609158 6.8852618,14.2696252 6.82564221,14.3533085 Z M17.5758935,15.6210689 L9.96639277,10.9284505 L10.8149974,9.47141838 L18.778778,13.5315856 L17.5758935,15.6210689 Z" id="形状" fill="#2D8EF8" fill-rule="nonzero"></path>
            </g>
        </g>
    </g>
</svg>