<?xml version="1.0" encoding="UTF-8"?>
<svg width="20px" height="20px" viewBox="0 0 20 20" version="1.1" xmlns="http://www.w3.org/2000/svg" xmlns:xlink="http://www.w3.org/1999/xlink">
    <!-- Generator: Sketch 52.5 (67469) - http://www.bohemiancoding.com/sketch -->
    <title>ic_knowledge</title>
    <desc>Created with Sketch.</desc>
    <g id="组件" stroke="none" stroke-width="1" fill="none" fill-rule="evenodd">
        <g id="ic_knowledge">
            <g>
                <circle id="Oval-3-Copy" fill="#2D8EF8" cx="10" cy="10" r="10"></circle>
                <path d="M16.4072197,8.10455308 L16.4072197,10.4201737 L16.8946857,10.9077796 L15.8782843,11.9655386 L14.8492951,10.9389831 L15.553927,10.2982688 L15.553927,8.47010011 C12.5640668,9.70288421 11.6055968,10.086054 10.9425183,10.3851799 C10.2794259,10.6843058 9.80194618,10.6827953 9.14433638,10.4349993 C8.48662867,10.1871333 5.35595397,9.04454712 3.80141407,8.30058565 C2.7640751,7.80422437 2.69729032,7.4894198 3.81923267,7.0681512 C5.28343479,6.51190041 7.70351942,5.62108235 8.98633268,5.13490313 C9.74566514,4.82772112 10.147241,4.6600109 10.8442503,5.0103128 C12.0888249,5.52424092 14.9326677,6.59139877 16.3467707,7.17527259 C17.5777506,7.71247397 16.7501928,7.88917741 16.4072197,8.10455308 Z M11.0867175,11.3017888 C11.8097554,11.0034601 12.7846734,10.5101758 13.8476773,10.0547806 L13.8476773,13.7111599 C13.8476773,13.7111599 12.4729178,15.1736417 10.056078,15.1736417 C7.45333175,15.1736417 6.0474247,13.7111599 6.0474247,13.7111599 L6.0474247,10.2982548 C6.86787748,10.6325284 7.78918577,10.9201435 8.90414893,11.3017888 C9.59132586,11.546284 10.4633183,11.6308175 11.0867175,11.3017888 Z" id="形状" fill="#FFFFFF" fill-rule="nonzero"></path>
            </g>
        </g>
    </g>
</svg>