<?xml version="1.0" encoding="UTF-8"?>
<svg width="14px" height="14px" viewBox="0 0 14 14" version="1.1" xmlns="http://www.w3.org/2000/svg" xmlns:xlink="http://www.w3.org/1999/xlink">
    <!-- Generator: Sketch 52.5 (67469) - http://www.bohemiancoding.com/sketch -->
    <title>ic_left</title>
    <desc>Created with Sketch.</desc>
    <g id="组件" stroke="none" stroke-width="1" fill="none" fill-rule="evenodd">
        <g id="ic_left">
            <g>
                <rect id="矩形" fill="#000000" opacity="0" x="0" y="0" width="14" height="14"></rect>
                <path d="M10.9812172,6.62514128 L6.41919788,2.14161539 C6.22474078,1.95290682 5.91551502,1.95290682 5.72105792,2.14161539 C5.62848705,2.23198672 5.57629234,2.35588407 5.57629234,2.48525309 C5.57629234,2.6146221 5.62848705,2.73851946 5.72105792,2.82889079 L9.966662,6.99966365 L5.72105792,11.1719014 C5.62850966,11.2619856 5.57630437,11.3856542 5.57630437,11.5148066 C5.57630437,11.6439591 5.62850966,11.7676277 5.72105792,11.8577119 C5.91512213,12.047387 6.22513367,12.047387 6.41919788,11.8577119 L10.9815834,7.37565089 C11.0879097,7.27213232 11.1302693,7.13479931 11.1218462,6.99966365 C11.1325791,6.86018091 11.0811023,6.72308816 10.9812172,6.62514128 M7.54459608,6.99966365 C7.55621779,6.86055158 7.50551066,6.72345455 7.40616441,6.62538542 L2.84426716,2.14161539 C2.64909754,1.95279487 2.33934364,1.95279487 2.14417402,2.14161539 C2.05203534,2.23221957 2.0001414,2.35602981 2.0001414,2.48525309 C2.0001414,2.61447636 2.05203534,2.7382866 2.14417402,2.82889079 L6.39319617,6.99966365 L2.14417402,11.1719014 C2.05196728,11.2621701 2,11.3857697 2,11.5148066 C2,11.6438436 2.05196728,11.7674432 2.14417402,11.8577119 C2.3389799,12.0474294 2.64946128,12.0474294 2.84426716,11.8577119 L7.40653064,7.37565089 C7.50584362,7.27687654 7.55638632,7.13923595 7.54459608,6.99966365" id="形状" fill="#ADB5BD" fill-rule="nonzero"></path>
            </g>
        </g>
    </g>
</svg>