<?xml version="1.0" encoding="UTF-8"?>
<svg width="20px" height="20px" viewBox="0 0 20 20" version="1.1" xmlns="http://www.w3.org/2000/svg" xmlns:xlink="http://www.w3.org/1999/xlink">
    <!-- Generator: Sketch 52.5 (67469) - http://www.bohemiancoding.com/sketch -->
    <title>ic_money</title>
    <desc>Created with Sketch.</desc>
    <g id="组件" stroke="none" stroke-width="1" fill="none" fill-rule="evenodd">
        <g id="ic_money">
            <g>
                <rect id="矩形" fill="#000000" opacity="0" x="0" y="0" width="20" height="20"></rect>
                <path d="M12.3631078,9.10740518 C12.8545146,9.10740518 13.2557026,9.50699426 13.2557026,10 C13.2557026,10.2998367 13.4976786,10.5423523 13.7969956,10.5423523 C14.097352,10.5423523 14.3403872,10.2998367 14.3403872,10 C14.3403872,8.9110583 13.4530888,8.02322025 12.3630878,8.02322025 L10.5449805,8.02322025 L10.5449805,7.22668031 C10.5449805,6.92736324 10.3029846,6.68484768 10.0036875,6.68484768 C9.70331115,6.68484768 9.46131523,6.92738324 9.46131523,7.22668031 L9.46131523,8.02322025 L7.64320791,8.02322025 C6.55212766,8.02322025 5.66696779,8.90891975 5.66696779,10 L5.66696779,10.2149343 C5.66696779,11.3044156 6.55214764,12.191694 7.64320791,12.191694 L9.46131523,12.191694 L9.46131523,14.3600439 L7.64320791,14.3600439 C7.15180109,14.3600439 6.75061309,13.9604548 6.75061309,13.4674491 C6.75061309,13.1676124 6.50755787,12.9256364 6.2082608,12.9256364 C5.90896373,12.9256364 5.66696779,13.1676124 5.66696779,13.4674491 C5.66696779,14.5569304 6.55214764,15.4447685 7.64320791,15.4447685 L9.46131523,15.4447685 L9.46131523,16.1049209 C9.46131523,16.4047576 9.70331115,16.6472931 10.0036875,16.6472931 C10.3029846,16.6472931 10.5449805,16.4047576 10.5449805,16.1049209 L10.5449805,15.4447685 L12.3630878,15.4447685 C13.4520295,15.4447685 14.3403872,14.5585293 14.3403872,13.4674491 L14.3403872,13.0827099 C14.3403872,11.9937682 13.4530888,11.1064498 12.3630878,11.1064498 L10.5449805,11.1064498 L10.5449805,9.10740518 L12.3631078,9.10740518 Z M9.46133521,11.1064498 L7.64322789,11.1064498 C7.15182107,11.1064498 6.75063307,10.7063211 6.75063307,10.2133154 L6.75063307,9.99838109 C6.75063307,9.50697428 7.15078176,9.10524664 7.64322789,9.10524664 L9.46133521,9.10524664 L9.46133521,11.1064498 Z M12.3631078,12.1901151 C12.8545146,12.1901151 13.2557026,12.5902438 13.2557026,13.0827099 L13.2557026,13.4674491 C13.2557026,13.9588559 12.8555539,14.3600439 12.3631078,14.3600439 L10.5450005,14.3600439 L10.5450005,12.1901151 L12.3631078,12.1901151 Z M17.5902838,11.9141622 C17.5924023,8.26733477 14.9220329,5.24300525 11.4301604,4.69111943 L12.9500299,3.14630682 C13.6112416,2.47340305 13.1240919,1.30591461 12.1731166,1.30591461 L7.87672957,1.30591459 C6.92575434,1.30591459 6.39507414,2.47340303 7.05524654,3.1463068 L8.57721465,4.69111941 C5.08322357,5.24300523 2.41391336,8.26735473 2.41391336,11.9141622 L2.41391336,12.6507428 C2.41391336,12.6597567 2.40967623,12.6671916 2.40967623,12.6762055 L2.40967623,17.1052626 C2.40967623,17.9814086 3.12185338,18.6941054 3.99853898,18.6941054 L16.0003817,18.6941054 C16.8770673,18.6941054 17.5892245,17.9814086 17.5892245,17.1052626 L17.5892245,14.4837001 L17.5903038,14.4837001 L17.5903038,11.9141622 L17.5902838,11.9141622 Z M7.87567029,2.43307037 L12.1306654,2.43307037 L10.1331997,4.46397342 C10.0918078,4.50800357 10.0387237,4.51703744 10.0037075,4.51703744 C9.96761195,4.51703744 9.91668648,4.50800357 9.873156,4.46397342 L7.87567029,2.43307037 Z M16.5045199,17.1052626 C16.5045199,17.3828145 16.2784332,17.6083415 16.0003618,17.6083415 L3.99853898,17.6083415 C3.72046752,17.6083415 3.49440078,17.3828145 3.49440078,17.1052626 L3.4944008,14.4837001 L3.49863793,14.4837001 L3.49863793,11.9141622 C3.49863793,11.0725129 3.66208711,10.2573855 3.98790621,9.49002578 C4.30101393,8.74814877 4.74996953,8.08214033 5.32204166,7.50952855 C5.89517309,6.93745643 6.56064189,6.48850082 7.30253889,6.17489344 C8.06989861,5.84959398 8.88502596,5.68560518 9.72669531,5.68560518 L10.2785811,5.68560518 C11.1213098,5.68560518 11.9364171,5.84959398 12.7037968,6.17489344 C13.4446146,6.48850082 14.1111626,6.93745643 14.6832348,7.50952855 C15.2563662,8.08212033 15.7053218,8.74814877 16.0184095,9.49002578 C16.34213,10.253668 16.5045199,11.0645582 16.5066385,11.9019705 C16.5119549,12.1301558 16.5130142,12.3763888 16.5024014,12.6645535 C16.5024014,12.6687906 16.5045199,12.6719884 16.5045199,12.6762255 L16.5045199,17.1052626 Z" id="形状" fill="#2D8EF8" fill-rule="nonzero"></path>
            </g>
        </g>
    </g>
</svg>