<?xml version="1.0" encoding="UTF-8"?>
<svg width="20px" height="20px" viewBox="0 0 20 20" version="1.1" xmlns="http://www.w3.org/2000/svg" xmlns:xlink="http://www.w3.org/1999/xlink">
    <!-- Generator: Sketch 52.5 (67469) - http://www.bohemiancoding.com/sketch -->
    <title>ic_notice</title>
    <desc>Created with Sketch.</desc>
    <g id="组件" stroke="none" stroke-width="1" fill="none" fill-rule="evenodd">
        <g id="ic_notice">
            <g>
                <circle id="Oval-3-Copy" fill="#FF6563" cx="10" cy="10" r="10"></circle>
                <path d="M5.38461538,8.46156302 C5.38461538,7.19346391 5.87290613,6.11175221 6.84285337,5.20426187 C7.81299574,4.29690254 8.99122976,3.84615385 10.3715243,3.84615385 C11.7517301,3.84615385 12.9300351,4.29690254 13.9132863,5.20426187 C14.8963246,6.11175221 15.3846154,7.19346391 15.3846154,8.46156302 C15.3846154,8.63580077 15.3781053,8.81611335 15.3584332,8.99040022 C15.3259361,9.02046323 15.3324461,9.08045826 15.3324461,9.11052128 L15.2542898,9.54329111 C15.2217217,9.54329111 15.2283737,9.58537277 15.2283737,9.61543578 C15.1761867,9.77758938 15.1241594,9.92181325 15.0720433,10.0480746 L15.0720433,10.0721938 C15.0720433,10.0721938 15.0655333,10.0781376 15.0459853,10.096182 C14.97441,10.2704689 14.9092029,10.4267933 14.8375566,10.5528581 C14.8375566,10.5709025 14.8310466,10.5769773 14.8115163,10.5769773 C14.7268322,10.73918 14.6292699,10.8895606 14.5250555,11.033719 C14.4209831,11.1779592 14.3101877,11.3221994 14.1864254,11.4663578 C14.1864254,11.4663578 14.1799154,11.4724326 14.1736182,11.4785074 L14.1605093,11.4902805 C14.0564369,11.6045887 13.9327633,11.7127402 13.7960518,11.8270484 C13.7960518,11.8270484 13.7830139,11.8329923 13.756885,11.8510203 C13.6918197,11.8929873 13.6853097,11.9291251 13.6135215,11.995195 C13.5810953,11.995195 13.535649,12.0131739 13.535649,12.0433679 L13.2881422,12.2234839 L13.2360261,12.2594908 L13.196948,12.2836591 C13.0408305,12.3978363 12.9299641,12.5240977 12.8583888,12.6682724 C12.7868136,12.8124963 12.7218193,12.9145894 12.650173,12.9807902 C12.5785268,13.0467946 12.4483963,13.0769231 12.2594269,13.0769231 L8.50944909,13.0769231 C8.32071026,13.0769231 8.19050886,13.0467291 8.11893357,12.9807902 C8.04721636,12.9145894 7.97555237,12.8124963 7.89746701,12.6682724 C7.81931069,12.5240977 7.70872819,12.3978363 7.57206993,12.2836591 C7.55239781,12.2836591 7.53950184,12.2775843 7.51990067,12.2594908 L7.48082251,12.2234839 L7.23345759,12.0433679 L7.15535448,11.995195 L7.05128205,11.8991931 C7.05128205,11.8991931 7.02508212,11.8750084 6.97312573,11.8270484 L6.60843763,11.4902805 C6.60843763,11.4902805 6.60199851,11.4845331 6.59548844,11.4785074 L6.58245056,11.4663578 C6.3414538,11.1779592 6.13323798,10.8953734 5.9575193,10.5769773 C5.9379004,10.5769773 5.93131937,10.570968 5.93131937,10.5528581 C5.85974408,10.4267933 5.79467885,10.2704689 5.72310356,10.096182 C5.70355561,10.096182 5.69697458,10.0901563 5.69697458,10.0721938 L5.69697458,10.0480746 C5.64501819,9.92181325 5.5928312,9.77758938 5.54080385,9.61543578 C5.54080385,9.61543578 5.53429378,9.60335163 5.52769502,9.57936345 L5.51467488,9.5433566 C5.48210679,9.41716072 5.45611973,9.27292049 5.43658951,9.11058677 C5.43658951,9.08052376 5.4105315,9.02052873 5.4105315,8.99046572 C5.39119641,8.81611335 5.38468634,8.63580077 5.38468634,8.46156302 L5.38461538,8.46156302 Z M8.14109569,13.8461538 L12.6282879,13.8461538 C12.8877456,13.8461538 13.0769231,14.0083747 13.0769231,14.2307938 C13.0769231,14.4531638 12.8877456,14.6153846 12.6282879,14.6153846 L8.14109569,14.6153846 C7.88163804,14.6153846 7.69230769,14.4531638 7.69230769,14.2307938 C7.69230769,14.0083747 7.88163804,13.8461538 8.14109569,13.8461538 Z M8.46153846,15.3846154 L12.3076923,15.3846154 L10.7426238,16.0837407 C10.4972965,16.1772146 10.2187963,16.1772146 9.97339667,16.0837407 L8.46153846,15.3846154 Z M11.153883,6.14202895 C11.6167035,6.14202895 12.05534,6.32547777 12.4639798,6.69829207 C12.8726851,7.07097739 13.0769149,7.53252553 13.0769149,8.08287198 C13.0769149,8.27217298 13.2391788,8.46153846 13.4615671,8.46153846 C13.6839554,8.46153846 13.8461538,8.27217298 13.8461538,8.08287198 C13.8461538,7.26034288 13.5757249,6.60942926 13.0287433,6.11847515 C12.4819582,5.62726308 11.8570047,5.38461538 11.153883,5.38461538 C10.9314947,5.38461538 10.7692308,5.54433306 10.7692308,5.76329798 C10.7692308,5.98226291 10.9314947,6.14202895 11.153883,6.14202895 Z" id="公告-copy" fill="#FFFFFF"></path>
            </g>
        </g>
    </g>
</svg>