<?xml version="1.0" encoding="UTF-8"?>
<svg width="20px" height="20px" viewBox="0 0 20 20" version="1.1" xmlns="http://www.w3.org/2000/svg" xmlns:xlink="http://www.w3.org/1999/xlink">
    <!-- Generator: Sketch 52.5 (67469) - http://www.bohemiancoding.com/sketch -->
    <title>ic_review</title>
    <desc>Created with Sketch.</desc>
    <g id="组件" stroke="none" stroke-width="1" fill="none" fill-rule="evenodd">
        <g id="ic_review">
            <g>
                <circle id="Oval-3" fill="#FF9F01" cx="10" cy="10" r="10"></circle>
                <path d="M12,7 L15,7 L11.5,4 L11.5,6.5 C11.5,6.80000001 11.7,7 12,7 Z M12.2,14.45 L12.15,14.45 L11.75,15.5 L12.8,15.2 L12.85,15.2 L15.5,12.9 L14.8,12.15 L12.2,14.45 Z M15,7.5 L11.5,7.5 C11.2,7.5 11,7.3 11,7 L11,4 L7,4 C6.45,4 6,4.45 6,5 L6,14.5 C6,15.05 6.45,15.5 7,15.5 L9.9,15.5 L15,10.45 L15,7.5 Z M11.75,10.5 L7.75000001,10.5 C7.60000001,10.5 7.50000001,10.4 7.50000001,10.25 C7.50000001,10.1 7.60000001,10 7.75000001,10 L11.75,10 C11.9,10 12,10.1 12,10.25 C12,10.4 11.85,10.5 11.75,10.5 Z M13.25,9 L7.75000001,9 C7.60000001,9 7.50000001,8.90000001 7.50000001,8.75000001 C7.50000001,8.60000001 7.60000001,8.50000001 7.75000001,8.50000001 L13.25,8.50000001 C13.4,8.50000001 13.5,8.60000001 13.5,8.75000001 C13.5,8.90000001 13.35,9 13.25,9 Z M16.5,11.8 L16.1,11.3 C16.05,11.25 16,11.25 15.95,11.3 L15.45,11.7 C15.4,11.75 15.4,11.8 15.45,11.85 L15.85,12.35 C15.9,12.4 15.95,12.4 16,12.35 L16.5,11.95 C16.55,11.95 16.55,11.85 16.5,11.8 Z" id="形状" fill="#FFFFFF" fill-rule="nonzero"></path>
            </g>
        </g>
    </g>
</svg>