<?xml version="1.0" encoding="UTF-8"?>
<svg width="20px" height="20px" viewBox="0 0 20 20" version="1.1" xmlns="http://www.w3.org/2000/svg" xmlns:xlink="http://www.w3.org/1999/xlink">
    <!-- Generator: Sketch 52.5 (67469) - http://www.bohemiancoding.com/sketch -->
    <title>ic_service</title>
    <desc>Created with Sketch.</desc>
    <g id="组件" stroke="none" stroke-width="1" fill="none" fill-rule="evenodd">
        <g id="ic_service">
            <g>
                <rect id="矩形" fill="#000000" opacity="0" x="0" y="0" width="20" height="20"></rect>
                <path d="M5.375,6.75 C5.375,6.75 5.375,6.75 5.375,6.75 C5.5,6.75 7.25,6.375 8.5,5.875 C8.625,6 8.75,6.25 8.875,6.25 C9,6.25 9.125,6.25 9.25,6.25 L10.5,6.25 C10.5,6.25 10.75,6.25 10.875,6.25 C11,6.25 11.25,6.125 11.25,6 C12.375,6.5 14,6.75 14.125,6.75 C14.125,6.75 14.375,6.75 14.5,6.75 C15.25,6.75 16.125,6 16.125,5.375 L16.125,2.625 C16.25,1.875 15.25,1.25 14.625,1.25 C14.625,1.25 14.5,1.25 14.375,1.25 C14.375,1.25 12.5,1.375 11.375,1.875 C11.375,1.625 11,1.25 10.625,1.25 L9,1.25 C8.75,1.25 8.5,1.625 8.5,1.75 C8.5,1.75 8.5,1.875 8.5,1.875 C7.25,1.375 5.5,1.25 5.5,1.25 C5.5,1.25 5.5,1.25 5.5,1.25 C4.75,1.25 3.75,1.875 3.75,2.625 L3.75,5.5 C3.75,6.125 4.75,6.75 5.375,6.75 Z M14.25,2.25 C14.375,2.25 14.625,2.5 14.625,2.5 L14.625,5.375 C14.625,5.5 14.25,5.625 14.125,5.625 C13.375,5.5 12.5,5.125 11.25,4.75 L11.25,3.25 C12.5,2.875 13.375,2.5 14.25,2.25 Z M10.5,2.75 C10.5,2.875 10.5,2.875 10.5,3 L10.5,4.875 L9.5,4.875 L9.5,3 C9.5,2.875 9.5,2.875 9.5,2.75 L10.5,2.75 Z M5,2.625 C5,2.5 5.5,2.375 5.625,2.25 C6.5,2.5 7.5,3 8.75,3.25 L8.75,4.875 C7.5,5.125 6.5,5.5 5.625,5.75 C5.5,5.625 5,5.5 5,5.375 L5,2.625 Z M19.5,6.625 L18.125,5.625 C17.625,5.25 16.75,5.375 16.5,6 L10,16.625 C10,16.625 9.875,16.625 9.875,16.625 L3.25,6.25 C3,5.75 2.375,5.5 1.875,5.75 L0.75,6.25 C0.25,6.375 0,6.75 0,7.25 L0,16 C0,18.125 1.75,20 3.875,20 L16,20 C18.125,20 20,18.125 20,16 L20,7.625 C20,7.25 19.75,6.875 19.5,6.625 Z M18.75,16 C18.75,17.5 17.5,18.75 16,18.75 L3.875,18.75 C2.25,18.75 1.25,17.5 1.25,16 L1.25,7.25 C1.25,7.25 1.125,7.125 1.25,7.125 L2.375,6.625 C2.375,6.625 2.375,6.625 2.375,6.625 L8.875,17.125 C9.125,17.5 9.5,17.625 9.875,17.625 C10.25,17.625 10.625,17.375 10.875,17.125 L17.375,6.375 C17.375,6.25 17.5,6.375 17.5,6.375 L18.75,7.5 C18.75,7.5 18.75,7.5 18.75,7.625 L18.75,16 Z M16.875,11.625 L15.875,11.625 C15.625,11.625 15.375,11.875 15.375,12.125 C15.375,12.375 15.625,12.625 15.875,12.625 L16.875,12.625 C17.125,12.625 17.375,12.375 17.375,12.125 C17.375,11.875 17.125,11.625 16.875,11.625 Z M9.375,11 C9.5,11 9.625,11 9.75,11 C10.25,11 10.75,10.75 11.125,10.375 C11.5,10 11.625,9.375 11.5,8.875 C11.375,8.25 10.875,7.75 10.25,7.625 C9.625,7.375 8.875,7.625 8.5,8.25 C8.125,8.625 8,9.125 8.125,9.75 C8.25,10.375 8.75,10.875 9.375,11 Z M9.25,8.875 C9.375,8.75 9.625,8.625 9.875,8.625 C9.875,8.625 10,8.625 10,8.625 C10.25,8.625 10.375,8.875 10.5,9.125 C10.5,9.375 10.5,9.5 10.375,9.75 C10.25,9.875 10,10 9.625,10 C9.375,10 9.25,9.75 9.125,9.5 C9.125,9.25 9.125,9 9.25,8.875 Z M8.125,13.75 C8.25,14.375 8.75,14.875 9.375,15 C9.5,15 9.625,15 9.75,15 C10.25,15 10.75,14.75 11.125,14.375 C11.5,14 11.625,13.375 11.5,12.875 C11.375,12.25 10.875,11.75 10.25,11.625 C9.625,11.5 8.875,11.75 8.5,12.25 C8.125,12.625 8,13.25 8.125,13.75 Z M9.25,12.875 C9.375,12.75 9.625,12.625 9.75,12.625 C9.75,12.625 9.875,12.625 9.875,12.625 C10.125,12.625 10.25,12.875 10.375,13.125 C10.375,13.375 10.375,13.5 10.25,13.75 C10.125,14 9.75,14 9.5,14 C9.25,14 9.125,13.75 9,13.5 C9.125,13.25 9.125,13.125 9.25,12.875 Z" id="形状" fill="#2D8EF8" fill-rule="nonzero"></path>
            </g>
        </g>
    </g>
</svg>