<?xml version="1.0" encoding="UTF-8"?>
<svg width="20px" height="20px" viewBox="0 0 20 20" version="1.1" xmlns="http://www.w3.org/2000/svg" xmlns:xlink="http://www.w3.org/1999/xlink">
    <!-- Generator: Sketch 52.5 (67469) - http://www.bohemiancoding.com/sketch -->
    <title>ic_survey</title>
    <desc>Created with Sketch.</desc>
    <g id="组件" stroke="none" stroke-width="1" fill="none" fill-rule="evenodd">
        <g id="ic_survey">
            <g>
                <circle id="Oval-3" fill="#2D8EF8" cx="10" cy="10" r="10"></circle>
                <path d="M5,14.3110336 L15,14.3110336 L15,11.8507695 L5,11.8507695 L5,14.3110336 Z M9.98850075,12.4260997 L14.4246699,12.4260997 L14.4246699,13.7357035 L9.98850075,13.7357035 L9.98850075,12.4260997 Z M5,5 L5,7.4602641 L15,7.4602641 L15,5 L5,5 Z M14.4246699,6.88493397 L9.99999424,6.88493397 L9.99999424,5.57531863 L14.4246699,5.57531863 L14.4246699,6.88493397 Z M5,10.8856489 L15,10.8856489 L15,8.42538477 L5,8.42538477 L5,10.8856489 Z M9.98850075,9.0007149 L14.4246699,9.0007149 L14.4246699,10.3103187 L9.98850075,10.3103187 L9.98850075,9.0007149 Z" id="形状" fill="#FFFFFF" fill-rule="nonzero"></path>
            </g>
        </g>
    </g>
</svg>