<?xml version="1.0" encoding="UTF-8"?>
<svg width="20px" height="20px" viewBox="0 0 20 20" version="1.1" xmlns="http://www.w3.org/2000/svg" xmlns:xlink="http://www.w3.org/1999/xlink">
    <!-- Generator: Sketch 52.5 (67469) - http://www.bohemiancoding.com/sketch -->
    <title>ic_tesk</title>
    <desc>Created with Sketch.</desc>
    <g id="组件" stroke="none" stroke-width="1" fill="none" fill-rule="evenodd">
        <g id="ic_tesk">
            <g>
                <circle id="Oval-3" fill="#FF6666" cx="10" cy="10" r="10"></circle>
                <path d="M14.6420048,16 L5.80190931,16 C5.3627685,16 5,15.6372315 5,15.1980907 L5,6.39618138 C5,5.95704057 5.3627685,5.59427208 5.80190931,5.59427208 L6.20286396,5.59427208 L6.20286396,6.79713604 C6.20286396,7.23627685 6.56563246,7.59904535 7.00477327,7.59904535 L13.4295943,7.59904535 C13.8687351,7.59904535 14.2315036,7.23627685 14.2315036,6.79713604 L14.2315036,5.59427208 L14.6324582,5.59427208 C15.071599,5.59427208 15.4343675,5.95704057 15.4343675,6.39618138 L15.4343675,15.1980907 C15.4439141,15.6372315 15.0811456,16 14.6420048,16 Z M12.8472554,10.5584726 C12.6085919,10.3293556 12.2267303,10.3293556 11.9880668,10.5584726 L9.84009547,12.601432 L8.83770883,11.646778 C8.59904535,11.4176611 8.21718377,11.4176611 7.97852029,11.646778 C7.7398568,11.875895 7.7398568,12.2386635 7.97852029,12.4582339 L9.41050119,13.8138425 C9.64916468,14.0429594 10.0310263,14.0429594 10.2696897,13.8138425 L12.8472554,11.3699284 C13.0859189,11.150358 13.0859189,10.7875895 12.8472554,10.5584726 Z M12.2267303,6.79713604 L8.21718377,6.79713604 C7.77804296,6.79713604 7.41527446,6.43436754 7.41527446,5.99522673 L7.41527446,5.59427208 C9.01909308,4.42004773 9.03818616,4.40095465 9.45823389,4 L11.052506,4 C11.4439141,4.37231504 11.4343675,4.42004773 13.0286396,5.59427208 L13.0286396,5.99522673 C13.0286396,6.44391408 12.6754177,6.79713604 12.2267303,6.79713604 Z M10.221957,4.80190931 C9.78281623,4.80190931 9.42004773,5.1646778 9.42004773,5.60381862 C9.42004773,6.04295943 9.78281623,6.40572792 10.221957,6.40572792 C10.6610979,6.40572792 11.0238663,6.04295943 11.0238663,5.60381862 C11.0238663,5.15513126 10.6610979,4.80190931 10.221957,4.80190931 Z" id="形状" fill="#FFFFFF" fill-rule="nonzero"></path>
            </g>
        </g>
    </g>
</svg>