<?xml version="1.0" encoding="UTF-8"?>
<svg width="20px" height="20px" viewBox="0 0 20 20" version="1.1" xmlns="http://www.w3.org/2000/svg" xmlns:xlink="http://www.w3.org/1999/xlink">
    <!-- Generator: Sketch 52.5 (67469) - http://www.bohemiancoding.com/sketch -->
    <title>ic_work</title>
    <desc>Created with Sketch.</desc>
    <g id="组件" stroke="none" stroke-width="1" fill="none" fill-rule="evenodd">
        <g id="ic_work">
            <g>
                <circle id="Oval-3" fill="#4DD6DF" cx="10" cy="10" r="10"></circle>
                <path d="M7.05252095,15.7778796 L6.56539849,15.7778796 C5.363217,15.7778796 5.23344022,15.0308359 5.50144949,13.9830631 L6.28893351,10.9941531 C6.39444607,10.4989426 6.62201498,10.108877 6.94700839,9.80851542 L6.99590446,9.76770742 L7.06060902,9.75153128 L8.79880905,9.30484917 L9.13997859,9.56477036 L10.1388554,11.6764922 L7.05252095,11.6764922 L7.05252095,15.7778796 Z M14.354211,10.9941531 L15.1420627,13.9830631 C15.41816,15.0308359 15.2880156,15.7778796 14.0781137,15.7778796 L13.8097368,15.7778796 L13.8097368,11.6684041 L10.6101693,11.6684041 L11.5277978,9.55668229 L11.8608793,9.2967611 L13.6637838,9.74344321 L13.7531203,9.76770742 L13.8097368,9.8408677 C14.0781137,10.1901253 14.2486985,10.5798233 14.3376672,11.0022412 L14.354211,10.9941531 Z M6.84149582,16.30581 L13.9726011,16.30581 L13.5501832,16.9230769 L7.1903858,16.9230769 L6.84149582,16.30581 Z M7.92970903,6.9655584 C7.7753004,5.77183263 7.75912426,4.66707563 7.92162096,3.67628692 C10.0822389,2.20609616 11.1053799,3.93620811 12.7542435,3.67628692 C12.8840203,4.70788363 12.8354918,6.09682603 12.6810832,6.91702998 C12.5836587,7.46113658 12.3560898,7.94862669 12.0391845,8.33832466 C11.59287,8.88243127 10.9836912,9.22360082 10.3013521,9.22360082 C9.61901299,9.22360082 9.0017461,8.88243127 8.56315206,8.33832466 C8.25470244,7.96480283 8.0352216,7.49348887 7.92970903,6.9655584 Z" id="Page-1" fill="#FFFFFF"></path>
            </g>
        </g>
    </g>
</svg>